<svg id="visual" viewBox="0 0 900 600" width="900" height="600" xmlns="http://www.w3.org/2000/svg" xmlns:xlink="http://www.w3.org/1999/xlink" version="1.1"><g stroke-width="1" stroke-linejoin="bevel"><path d="M497 284L512 210L388 229Z" fill="#000000" stroke="#000000"></path><path d="M512 210L437 136L388 229Z" fill="#000000" stroke="#000000"></path><path d="M388 229L370 328L497 284Z" fill="#1b1b1b" stroke="#1b1b1b"></path><path d="M437 136L334 162L388 229Z" fill="#282828" stroke="#282828"></path><path d="M388 229L292 280L370 328Z" fill="#0c0c0c" stroke="#0c0c0c"></path><path d="M506 436L560 337L497 284Z" fill="#0c0c0c" stroke="#0c0c0c"></path><path d="M497 284L560 337L512 210Z" fill="#282828" stroke="#282828"></path><path d="M560 337L603 177L512 210Z" fill="#000000" stroke="#000000"></path><path d="M512 210L510 66L437 136Z" fill="#000000" stroke="#000000"></path><path d="M334 162L292 280L388 229Z" fill="#000000" stroke="#000000"></path><path d="M603 177L510 66L512 210Z" fill="#1b1b1b" stroke="#1b1b1b"></path><path d="M437 136L299 76L334 162Z" fill="#1b1b1b" stroke="#1b1b1b"></path><path d="M292 280L322 382L370 328Z" fill="#141414" stroke="#141414"></path><path d="M370 328L506 436L497 284Z" fill="#000000" stroke="#000000"></path><path d="M506 436L602 370L560 337Z" fill="#141414" stroke="#141414"></path><path d="M560 337L696 330L603 177Z" fill="#000000" stroke="#000000"></path><path d="M375 437L506 436L370 328Z" fill="#000000" stroke="#000000"></path><path d="M603 177L572 60L510 66Z" fill="#212121" stroke="#212121"></path><path d="M322 382L375 437L370 328Z" fill="#000000" stroke="#000000"></path><path d="M370 0L437 136L510 66Z" fill="#282828" stroke="#282828"></path><path d="M370 0L299 76L437 136Z" fill="#000000" stroke="#000000"></path><path d="M334 162L226 221L292 280Z" fill="#000000" stroke="#000000"></path><path d="M235 95L226 221L334 162Z" fill="#141414" stroke="#141414"></path><path d="M292 280L207 413L322 382Z" fill="#000000" stroke="#000000"></path><path d="M262 517L360 460L322 382Z" fill="#141414" stroke="#141414"></path><path d="M322 382L360 460L375 437Z" fill="#0c0c0c" stroke="#0c0c0c"></path><path d="M375 437L360 460L506 436Z" fill="#1b1b1b" stroke="#1b1b1b"></path><path d="M572 60L535 0L510 66Z" fill="#282828" stroke="#282828"></path><path d="M535 0L370 0L510 66Z" fill="#212121" stroke="#212121"></path><path d="M603 177L691 110L572 60Z" fill="#000000" stroke="#000000"></path><path d="M572 60L565 0L535 0Z" fill="#141414" stroke="#141414"></path><path d="M696 330L694 164L603 177Z" fill="#282828" stroke="#282828"></path><path d="M299 76L235 95L334 162Z" fill="#212121" stroke="#212121"></path><path d="M215 0L235 95L299 76Z" fill="#000000" stroke="#000000"></path><path d="M712 424L696 330L602 370Z" fill="#000000" stroke="#000000"></path><path d="M602 370L696 330L560 337Z" fill="#000000" stroke="#000000"></path><path d="M736 0L565 0L572 60Z" fill="#212121" stroke="#212121"></path><path d="M125 265L191 272L226 221Z" fill="#0c0c0c" stroke="#0c0c0c"></path><path d="M226 221L191 272L292 280Z" fill="#000000" stroke="#000000"></path><path d="M694 164L691 110L603 177Z" fill="#000000" stroke="#000000"></path><path d="M370 0L314 0L299 76Z" fill="#000000" stroke="#000000"></path><path d="M360 460L532 504L506 436Z" fill="#141414" stroke="#141414"></path><path d="M506 436L585 485L602 370Z" fill="#000000" stroke="#000000"></path><path d="M532 504L585 485L506 436Z" fill="#000000" stroke="#000000"></path><path d="M191 272L207 413L292 280Z" fill="#000000" stroke="#000000"></path><path d="M696 330L769 208L694 164Z" fill="#000000" stroke="#000000"></path><path d="M694 164L806 125L691 110Z" fill="#1b1b1b" stroke="#1b1b1b"></path><path d="M585 485L712 424L602 370Z" fill="#141414" stroke="#141414"></path><path d="M696 330L807 304L769 208Z" fill="#1b1b1b" stroke="#1b1b1b"></path><path d="M60 204L125 265L226 221Z" fill="#282828" stroke="#282828"></path><path d="M191 272L138 390L207 413Z" fill="#212121" stroke="#212121"></path><path d="M314 0L215 0L299 76Z" fill="#000000" stroke="#000000"></path><path d="M62 128L60 204L226 221Z" fill="#000000" stroke="#000000"></path><path d="M207 413L262 517L322 382Z" fill="#000000" stroke="#000000"></path><path d="M360 460L461 600L532 504Z" fill="#212121" stroke="#212121"></path><path d="M235 506L262 517L207 413Z" fill="#000000" stroke="#000000"></path><path d="M108 481L235 506L207 413Z" fill="#000000" stroke="#000000"></path><path d="M125 265L138 390L191 272Z" fill="#000000" stroke="#000000"></path><path d="M800 405L807 304L696 330Z" fill="#000000" stroke="#000000"></path><path d="M377 600L461 600L360 460Z" fill="#000000" stroke="#000000"></path><path d="M532 504L633 600L585 485Z" fill="#212121" stroke="#212121"></path><path d="M585 485L719 492L712 424Z" fill="#141414" stroke="#141414"></path><path d="M377 600L360 460L262 517Z" fill="#141414" stroke="#141414"></path><path d="M806 125L694 164L769 208Z" fill="#000000" stroke="#000000"></path><path d="M806 125L736 0L691 110Z" fill="#000000" stroke="#000000"></path><path d="M691 110L736 0L572 60Z" fill="#212121" stroke="#212121"></path><path d="M633 600L719 492L585 485Z" fill="#000000" stroke="#000000"></path><path d="M712 424L800 405L696 330Z" fill="#0c0c0c" stroke="#0c0c0c"></path><path d="M900 184L806 125L769 208Z" fill="#1b1b1b" stroke="#1b1b1b"></path><path d="M290 600L377 600L262 517Z" fill="#0c0c0c" stroke="#0c0c0c"></path><path d="M719 492L800 405L712 424Z" fill="#000000" stroke="#000000"></path><path d="M62 128L226 221L235 95Z" fill="#141414" stroke="#141414"></path><path d="M125 265L0 305L138 390Z" fill="#000000" stroke="#000000"></path><path d="M232 600L262 517L235 506Z" fill="#282828" stroke="#282828"></path><path d="M232 600L290 600L262 517Z" fill="#000000" stroke="#000000"></path><path d="M806 125L781 0L736 0Z" fill="#212121" stroke="#212121"></path><path d="M82 0L62 128L235 95Z" fill="#1b1b1b" stroke="#1b1b1b"></path><path d="M461 600L633 600L532 504Z" fill="#282828" stroke="#282828"></path><path d="M719 492L820 526L800 405Z" fill="#000000" stroke="#000000"></path><path d="M0 387L108 481L138 390Z" fill="#1b1b1b" stroke="#1b1b1b"></path><path d="M138 390L108 481L207 413Z" fill="#1b1b1b" stroke="#1b1b1b"></path><path d="M119 600L232 600L235 506Z" fill="#000000" stroke="#000000"></path><path d="M215 0L82 0L235 95Z" fill="#000000" stroke="#000000"></path><path d="M900 418L900 287L807 304Z" fill="#1b1b1b" stroke="#1b1b1b"></path><path d="M807 304L900 184L769 208Z" fill="#0c0c0c" stroke="#0c0c0c"></path><path d="M806 125L900 0L781 0Z" fill="#000000" stroke="#000000"></path><path d="M900 287L900 184L807 304Z" fill="#000000" stroke="#000000"></path><path d="M0 108L0 218L62 128Z" fill="#000000" stroke="#000000"></path><path d="M62 128L0 218L60 204Z" fill="#000000" stroke="#000000"></path><path d="M60 204L0 305L125 265Z" fill="#000000" stroke="#000000"></path><path d="M633 600L725 600L719 492Z" fill="#141414" stroke="#141414"></path><path d="M800 405L900 418L807 304Z" fill="#000000" stroke="#000000"></path><path d="M0 218L0 305L60 204Z" fill="#000000" stroke="#000000"></path><path d="M900 184L900 135L806 125Z" fill="#0c0c0c" stroke="#0c0c0c"></path><path d="M784 600L820 526L719 492Z" fill="#141414" stroke="#141414"></path><path d="M82 0L0 108L62 128Z" fill="#000000" stroke="#000000"></path><path d="M0 305L0 387L138 390Z" fill="#1b1b1b" stroke="#1b1b1b"></path><path d="M108 481L119 600L235 506Z" fill="#1b1b1b" stroke="#1b1b1b"></path><path d="M900 494L900 418L800 405Z" fill="#0c0c0c" stroke="#0c0c0c"></path><path d="M725 600L784 600L719 492Z" fill="#0c0c0c" stroke="#0c0c0c"></path><path d="M820 526L900 494L800 405Z" fill="#000000" stroke="#000000"></path><path d="M0 600L119 600L108 481Z" fill="#000000" stroke="#000000"></path><path d="M900 135L900 0L806 125Z" fill="#1b1b1b" stroke="#1b1b1b"></path><path d="M0 387L0 464L108 481Z" fill="#000000" stroke="#000000"></path><path d="M82 0L0 0L0 108Z" fill="#000000" stroke="#000000"></path><path d="M900 600L900 494L820 526Z" fill="#282828" stroke="#282828"></path><path d="M784 600L900 600L820 526Z" fill="#1b1b1b" stroke="#1b1b1b"></path><path d="M0 464L0 600L108 481Z" fill="#000000" stroke="#000000"></path></g></svg>